# xmcd
#
# Track frame offsets:
#	150
#	16840
#	29469
#	40163
#	53582
#	63433
#	73884
#	83688
#	97558
#	109782
#	123827
#	136292
#	149775
#	163926
#	176400
#	189666
#	199778
#	210995
#	226967
#	241014
#	258877
#	275945
#	290035
#	303216
#	314252
#
# Disc length: 4376 seconds
#
# Revision: 1
# Processed by: cddbd v1.5.2PL0 Copyright (c) Steve Scherf et al.
# Submitted via: audiograbber 1.83.01
#
DISCID=61111619
DTITLE=Various Artist - Diggin' For Soul
DYEAR=2010
DGENRE=Soul
TTITLE0=Joe Tex - Under Your Powerful Love
TTITLE1=Frederick Knight - Throw The Switch
TTITLE2=Jean Knight - (He Ain't Nothin' But) Dirt
TTITLE3=Little Archie - I Am A Carpet
TTITLE4=The Dialtones - If You Don't Know, You Just Don't Know
TTITLE5=Paul Kelly - Can't Help It
TTITLE6=Johnny Wyatt - I'll Stand By You
TTITLE7=The Delicates - I Want To Get Married
TTITLE8=Clarence Reid - I Got My Share
TTITLE9=The Dialtones - Don't Let The Sun Shine On Me
TTITLE10=P W Cannon - Hanging Out My Tears To Dry
TTITLE11=The Carnations - Part Of Your Love
TTITLE12=Jimmy Holiday - Save Me
TTITLE13=Bobby Marchan - I Gotta Sit Down And Cry
TTITLE14=Chris Harris and The Invaders - Why Can't We Get Along
TTITLE15=Johnny Wyatt - Hang Up The Phone
TTITLE16=Bobby Marchan - Get Down With It
TTITLE17=Annette Snell - I'll Be Your Fool (Once More)
TTITLE18=Joe Tex - All The Heaven A Man Really Needs
TTITLE19=Annette Snell - You Oughta Be Here With Me
TTITLE20=King Floyd - Learning To Forget You
TTITLE21=Chris Harris and The Soul Agents - You Really Fooled Me
TTITLE22=P W Cannon - It's A Woman's World
TTITLE23=Paul Kelly - Only Your Love
TTITLE24=Little Archie - I Need You
EXTD=Rare Soul Treasures From Challenge - Dial - Hickory
EXTT0=
EXTT1=
EXTT2=
EXTT3=
EXTT4=
EXTT5=
EXTT6=
EXTT7=
EXTT8=
EXTT9=
EXTT10=
EXTT11=
EXTT12=
EXTT13=
EXTT14=
EXTT15=
EXTT16=
EXTT17=
EXTT18=
EXTT19=
EXTT20=
EXTT21=
EXTT22=
EXTT23=
EXTT24=
PLAYORDER=
